<svg xmlns="http://www.w3.org/2000/svg" style="display: none;">
  <!-- Lucide Icons SVG Sprite -->
  
  <!-- book-open -->
  <symbol id="icon-book-open" viewBox="0 0 24 24" fill="none" stroke="currentColor" stroke-width="2" stroke-linecap="round" stroke-linejoin="round">
    <path d="M2 3h6a4 4 0 0 1 4 4v14a3 3 0 0 0-3-3H2z"/>
    <path d="M22 3h-6a4 4 0 0 0-4 4v14a3 3 0 0 1 3-3h7z"/>
  </symbol>
  
  <!-- play -->
  <symbol id="icon-play" viewBox="0 0 24 24" fill="none" stroke="currentColor" stroke-width="2" stroke-linecap="round" stroke-linejoin="round">
    <polygon points="5 3 19 12 5 21 5 3"/>
  </symbol>
  
  <!-- folder-open -->
  <symbol id="icon-folder-open" viewBox="0 0 24 24" fill="none" stroke="currentColor" stroke-width="2" stroke-linecap="round" stroke-linejoin="round">
    <path d="M22 19a2 2 0 0 1-2 2H4a2 2 0 0 1-2-2V5a2 2 0 0 1 2-2h5l2 3h9a2 2 0 0 1 2 2z"/>
    <path d="M2 11h20"/>
  </symbol>
  
  <!-- edit-2 -->
  <symbol id="icon-edit" viewBox="0 0 24 24" fill="none" stroke="currentColor" stroke-width="2" stroke-linecap="round" stroke-linejoin="round">
    <path d="M17 3a2.828 2.828 0 1 1 4 4L7.5 20.5 2 22l1.5-5.5L17 3z"/>
  </symbol>
  
  <!-- save -->
  <symbol id="icon-save" viewBox="0 0 24 24" fill="none" stroke="currentColor" stroke-width="2" stroke-linecap="round" stroke-linejoin="round">
    <path d="M19 21H5a2 2 0 0 1-2-2V5a2 2 0 0 1 2-2h11l5 5v11a2 2 0 0 1-2 2z"/>
    <polyline points="17 21 17 13 7 13 7 21"/>
    <polyline points="7 3 7 8 15 8"/>
  </symbol>
  
  <!-- eye -->
  <symbol id="icon-eye" viewBox="0 0 24 24" fill="none" stroke="currentColor" stroke-width="2" stroke-linecap="round" stroke-linejoin="round">
    <path d="M1 12s4-8 11-8 11 8 11 8-4 8-11 8-11-8-11-8z"/>
    <circle cx="12" cy="12" r="3"/>
  </symbol>
  
  <!-- upload -->
  <symbol id="icon-upload" viewBox="0 0 24 24" fill="none" stroke="currentColor" stroke-width="2" stroke-linecap="round" stroke-linejoin="round">
    <path d="M21 15v4a2 2 0 0 1-2 2H5a2 2 0 0 1-2-2v-4"/>
    <polyline points="17 8 12 3 7 8"/>
    <line x1="12" y1="3" x2="12" y2="15"/>
  </symbol>
  
  <!-- download -->
  <symbol id="icon-download" viewBox="0 0 24 24" fill="none" stroke="currentColor" stroke-width="2" stroke-linecap="round" stroke-linejoin="round">
    <path d="M21 15v4a2 2 0 0 1-2 2H5a2 2 0 0 1-2-2v-4"/>
    <polyline points="7 10 12 15 17 10"/>
    <line x1="12" y1="15" x2="12" y2="3"/>
  </symbol>
  
  <!-- layout-sidebar -->
  <symbol id="icon-sidebar" viewBox="0 0 24 24" fill="none" stroke="currentColor" stroke-width="2" stroke-linecap="round" stroke-linejoin="round">
    <rect x="3" y="3" width="18" height="18" rx="2" ry="2"/>
    <line x1="9" y1="3" x2="9" y2="21"/>
  </symbol>
  
  <!-- maximize-2 -->
  <symbol id="icon-maximize" viewBox="0 0 24 24" fill="none" stroke="currentColor" stroke-width="2" stroke-linecap="round" stroke-linejoin="round">
    <polyline points="15 3 21 3 21 9"/>
    <polyline points="9 21 3 21 3 15"/>
    <line x1="21" y1="3" x2="14" y2="10"/>
    <line x1="3" y1="21" x2="10" y2="14"/>
  </symbol>
  
  <!-- refresh-cw -->
  <symbol id="icon-refresh" viewBox="0 0 24 24" fill="none" stroke="currentColor" stroke-width="2" stroke-linecap="round" stroke-linejoin="round">
    <polyline points="23 4 23 10 17 10"/>
    <polyline points="1 20 1 14 7 14"/>
    <path d="M3.51 9a9 9 0 0 1 14.85-3.36L23 10M1 14l4.64 4.36A9 9 0 0 0 20.49 15"/>
  </symbol>
  
  <!-- settings -->
  <symbol id="icon-settings" viewBox="0 0 24 24" fill="none" stroke="currentColor" stroke-width="2" stroke-linecap="round" stroke-linejoin="round">
    <circle cx="12" cy="12" r="3"/>
    <path d="M12 1v6m0 6v6m7.07-12.07l-4.24 4.24m-5.66 5.66l-4.24 4.24M1 12h6m6 0h6M5.93 5.93l4.24 4.24m5.66 5.66l4.24 4.24"/>
  </symbol>
  
  <!-- menu (ハンバーガー) -->
  <symbol id="icon-menu" viewBox="0 0 24 24" fill="none" stroke="currentColor" stroke-width="2" stroke-linecap="round" stroke-linejoin="round">
    <line x1="3" y1="12" x2="21" y2="12"/>
    <line x1="3" y1="6" x2="21" y2="6"/>
    <line x1="3" y1="18" x2="21" y2="18"/>
  </symbol>
  
  <!-- x (閉じる) -->
  <symbol id="icon-x" viewBox="0 0 24 24" fill="none" stroke="currentColor" stroke-width="2" stroke-linecap="round" stroke-linejoin="round">
    <line x1="18" y1="6" x2="6" y2="18"/>
    <line x1="6" y1="6" x2="18" y2="18"/>
  </symbol>
  
  <!-- chevron-down -->
  <symbol id="icon-chevron-down" viewBox="0 0 24 24" fill="none" stroke="currentColor" stroke-width="2" stroke-linecap="round" stroke-linejoin="round">
    <polyline points="6 9 12 15 18 9"/>
  </symbol>
  
  <!-- palette (カラーパレット) -->
  <symbol id="icon-palette" viewBox="0 0 24 24" fill="none" stroke="currentColor" stroke-width="2" stroke-linecap="round" stroke-linejoin="round">
    <circle cx="13.5" cy="6.5" r=".5"/>
    <circle cx="17.5" cy="10.5" r=".5"/>
    <circle cx="8.5" cy="7.5" r=".5"/>
    <circle cx="6.5" cy="12.5" r=".5"/>
    <path d="M12 2C6.5 2 2 6.5 2 12s4.5 10 10 10c.926 0 1.648-.746 1.648-1.688 0-.437-.18-.835-.437-1.125-.29-.289-.438-.652-.438-1.125a1.64 1.64 0 0 1 1.668-1.668h1.996c3.051 0 5.555-2.503 5.555-5.554C21.965 6.012 17.461 2 12 2z"/>
  </symbol>
  
  <!-- plus (追加) -->
  <symbol id="icon-plus" viewBox="0 0 24 24" fill="none" stroke="currentColor" stroke-width="2" stroke-linecap="round" stroke-linejoin="round">
    <line x1="12" y1="5" x2="12" y2="19"/>
    <line x1="5" y1="12" x2="19" y2="12"/>
  </symbol>
  
  <!-- help-circle (ヘルプ) -->
  <symbol id="icon-help" viewBox="0 0 24 24" fill="none" stroke="currentColor" stroke-width="2" stroke-linecap="round" stroke-linejoin="round">
    <circle cx="12" cy="12" r="10"/>
    <path d="M9.09 9a3 3 0 0 1 5.83 1c0 2-3 3-3 3"/>
    <line x1="12" y1="17" x2="12.01" y2="17"/>
  </symbol>
</svg>
